<svg xmlns="http://www.w3.org/2000/svg" width="760" height="295">
<defs><filter id="pencil" x="-5%" y="-5%" width="110%" height="110%"><feTurbulence type="fractalNoise" baseFrequency="0.9" numOctaves="4" seed="5" result="noise"/><feDisplacementMap in="SourceGraphic" in2="noise" scale="1.6" xChannelSelector="R" yChannelSelector="G"/></filter><filter id="pline" x="-2%" y="-30%" width="104%" height="160%"><feTurbulence type="fractalNoise" baseFrequency="0.015 0.9" numOctaves="3" seed="11" result="noise"/><feDisplacementMap in="SourceGraphic" in2="noise" scale="1.8" xChannelSelector="R" yChannelSelector="G"/></filter><filter id="rough" x="-5%" y="-5%" width="110%" height="110%"><feTurbulence type="turbulence" baseFrequency="0.05" numOctaves="2" seed="2" result="noise"/><feDisplacementMap in="SourceGraphic" in2="noise" scale="2" xChannelSelector="R" yChannelSelector="G"/></filter></defs>
<rect width="760" height="295" fill="#ffffff"/>
<text x="380" y="32" text-anchor="middle" font-size="14" font-weight="bold" font-family="Georgia,serif" fill="#111111" filter="url(#pencil)">Workload (6 months)</text>
<line x1="60" y1="250" x2="730" y2="250" stroke="#cccccc" stroke-width="0.7" stroke-dasharray="4,5" filter="url(#rough)"/>
<text x="54" y="254" text-anchor="end" font-size="10" font-family="Georgia,serif" fill="#333333">0</text>
<line x1="60" y1="200" x2="730" y2="200" stroke="#cccccc" stroke-width="0.7" stroke-dasharray="4,5" filter="url(#rough)"/>
<text x="54" y="204" text-anchor="end" font-size="10" font-family="Georgia,serif" fill="#333333">16K</text>
<line x1="60" y1="150" x2="730" y2="150" stroke="#cccccc" stroke-width="0.7" stroke-dasharray="4,5" filter="url(#rough)"/>
<text x="54" y="154" text-anchor="end" font-size="10" font-family="Georgia,serif" fill="#333333">33K</text>
<line x1="60" y1="100" x2="730" y2="100" stroke="#cccccc" stroke-width="0.7" stroke-dasharray="4,5" filter="url(#rough)"/>
<text x="54" y="104" text-anchor="end" font-size="10" font-family="Georgia,serif" fill="#333333">49K</text>
<line x1="60" y1="50" x2="730" y2="50" stroke="#cccccc" stroke-width="0.7" stroke-dasharray="4,5" filter="url(#rough)"/>
<text x="54" y="54" text-anchor="end" font-size="10" font-family="Georgia,serif" fill="#333333">66K</text>
<text x="152" y="270" text-anchor="middle" font-size="11" font-family="Georgia,serif" fill="#333333" filter="url(#pencil)">1월</text>
<text x="266" y="270" text-anchor="middle" font-size="11" font-family="Georgia,serif" fill="#333333" filter="url(#pencil)">2월</text>
<text x="369" y="270" text-anchor="middle" font-size="11" font-family="Georgia,serif" fill="#333333" filter="url(#pencil)">3월</text>
<text x="483" y="270" text-anchor="middle" font-size="11" font-family="Georgia,serif" fill="#333333" filter="url(#pencil)">4월</text>
<text x="593" y="270" text-anchor="middle" font-size="11" font-family="Georgia,serif" fill="#333333" filter="url(#pencil)">5월</text>
<text x="707" y="270" text-anchor="middle" font-size="11" font-family="Georgia,serif" fill="#333333" filter="url(#pencil)">6월</text>
<line x1="59" y1="42" x2="59" y2="256" stroke="#111111" stroke-width="2" filter="url(#pline)"/>
<line x1="52" y1="251" x2="738" y2="251" stroke="#111111" stroke-width="2" filter="url(#pline)"/>
<polygon points="60,250 60,250 63,250 67,250 71,250 74,250 78,250 82,250 85,250 89,250 93,250 96,250 100,250 104,250 107,250 111,250 115,250 118,250 122,250 126,250 129,250 133,250 137,250 140,250 144,250 148,250 152,250 155,250 159,250 163,250 166,250 170,250 174,250 177,250 181,250 185,250 188,250 192,250 196,250 199,250 203,250 207,250 210,250 214,239 218,239 221,239 225,239 229,239 233,239 236,239 240,239 244,238 247,238 251,238 255,238 258,238 262,238 266,238 269,238 273,238 277,238 280,238 284,238 288,238 291,238 295,238 299,238 302,238 306,238 310,238 314,238 317,238 321,238 325,238 328,238 332,238 336,238 339,238 343,238 347,238 350,238 354,238 358,238 361,238 365,238 369,238 372,238 376,238 380,238 383,238 387,238 391,238 395,238 398,238 402,238 406,238 409,238 413,237 417,237 420,219 424,219 428,218 431,217 435,217 439,217 442,217 446,217 450,217 453,217 457,217 461,216 464,216 468,216 472,216 475,216 479,216 483,216 487,215 490,215 494,215 498,215 501,215 505,214 509,196 512,191 516,190 520,190 523,190 527,189 531,189 534,188 538,188 542,186 545,186 549,185 553,185 556,184 560,183 564,182 568,178 571,175 575,173 579,173 582,171 586,168 590,167 593,166 597,166 601,164 604,161 608,158 612,156 615,151 619,146 623,144 626,141 630,140 634,138 637,137 641,137 645,135 649,133 652,131 656,124 660,123 663,77 667,71 671,70 674,68 678,67 682,59 685,57 689,56 693,56 696,53 700,52 704,51 707,51 711,51 715,51 718,51 722,51 726,50 730,50 730,250" fill="#e8e8e8" opacity="0.6"/>
<polyline points="60,250 63,250 67,250 71,250 74,250 78,250 82,250 85,250 89,250 93,250 96,250 100,250 104,250 107,250 111,250 115,250 118,250 122,250 126,250 129,250 133,250 137,250 140,250 144,250 148,250 152,250 155,250 159,250 163,250 166,250 170,250 174,250 177,250 181,250 185,250 188,250 192,250 196,250 199,250 203,250 207,250 210,250 214,239 218,239 221,239 225,239 229,239 233,239 236,239 240,239 244,238 247,238 251,238 255,238 258,238 262,238 266,238 269,238 273,238 277,238 280,238 284,238 288,238 291,238 295,238 299,238 302,238 306,238 310,238 314,238 317,238 321,238 325,238 328,238 332,238 336,238 339,238 343,238 347,238 350,238 354,238 358,238 361,238 365,238 369,238 372,238 376,238 380,238 383,238 387,238 391,238 395,238 398,238 402,238 406,238 409,238 413,237 417,237 420,219 424,219 428,218 431,217 435,217 439,217 442,217 446,217 450,217 453,217 457,217 461,216 464,216 468,216 472,216 475,216 479,216 483,216 487,215 490,215 494,215 498,215 501,215 505,214 509,196 512,191 516,190 520,190 523,190 527,189 531,189 534,188 538,188 542,186 545,186 549,185 553,185 556,184 560,183 564,182 568,178 571,175 575,173 579,173 582,171 586,168 590,167 593,166 597,166 601,164 604,161 608,158 612,156 615,151 619,146 623,144 626,141 630,140 634,138 637,137 641,137 645,135 649,133 652,131 656,124 660,123 663,77 667,71 671,70 674,68 678,67 682,59 685,57 689,56 693,56 696,53 700,52 704,51 707,51 711,51 715,51 718,51 722,51 726,50 730,50" fill="none" stroke="#111111" stroke-width="2.4" stroke-linejoin="round" stroke-linecap="round" filter="url(#pline)"/>
<circle cx="730" cy="50" r="4" fill="#111111" filter="url(#pencil)"/>
<text x="724" y="42" text-anchor="end" font-size="10" font-family="Georgia,serif" fill="#111111">66K</text>
<text x="60" y="289" font-size="9" font-family="Georgia,serif" fill="#888888">기준: 2026-06-07 23:21</text>
</svg>