<svg xmlns="http://www.w3.org/2000/svg" width="363" height="260">
<text x="181" y="18" text-anchor="middle" font-size="13" font-weight="bold" fill="#111111">최근 1달 요일별 활동</text>
<text x="24" y="46" text-anchor="end" font-size="12" fill="#333333">일</text><rect x="28" y="30" width="118" height="22" rx="3" fill="#40c463"><title>일: 1217.8점</title></rect><text x="151" y="46" font-size="10" fill="#333333">1217.8</text><text x="24" y="74" text-anchor="end" font-size="12" fill="#333333">월</text><rect x="28" y="58" width="280" height="22" rx="3" fill="#216e39"><title>월: 2881.2점</title></rect><text x="313" y="74" font-size="10" fill="#333333">2881.2</text><text x="24" y="102" text-anchor="end" font-size="12" fill="#333333">화</text><rect x="28" y="86" width="154" height="22" rx="3" fill="#30a14e"><title>화: 1590.1점</title></rect><text x="187" y="102" font-size="10" fill="#333333">1590.1</text><text x="24" y="130" text-anchor="end" font-size="12" fill="#333333">수</text><rect x="28" y="114" width="144" height="22" rx="3" fill="#30a14e"><title>수: 1484.3점</title></rect><text x="177" y="130" font-size="10" fill="#333333">1484.3</text><text x="24" y="158" text-anchor="end" font-size="12" fill="#333333">목</text><rect x="28" y="142" width="151" height="22" rx="3" fill="#30a14e"><title>목: 1561.4점</title></rect><text x="184" y="158" font-size="10" fill="#333333">1561.4</text><text x="24" y="186" text-anchor="end" font-size="12" fill="#333333">금</text><rect x="28" y="170" width="122" height="22" rx="3" fill="#40c463"><title>금: 1260.7점</title></rect><text x="155" y="186" font-size="10" fill="#333333">1260.7</text><text x="24" y="214" text-anchor="end" font-size="12" fill="#333333">토</text><rect x="28" y="198" width="117" height="22" rx="3" fill="#40c463"><title>토: 1208.2점</title></rect><text x="150" y="214" font-size="10" fill="#333333">1208.2</text>
<text x="28" y="254" font-size="9" fill="#666666">기준: 2026-06-09 23:27</text>
</svg>