<svg xmlns="http://www.w3.org/2000/svg" width="363" height="260">
<text x="181" y="18" text-anchor="middle" font-size="13" font-weight="bold" fill="#e0e0e0">최근 1달 요일별 활동</text>
<text x="24" y="46" text-anchor="end" font-size="12" fill="#cccccc">일</text><rect x="28" y="30" width="172" height="22" rx="3" fill="#30a14e"><title>일: 1664.7점</title></rect><text x="205" y="46" font-size="10" fill="#cccccc">1664.7</text><text x="24" y="74" text-anchor="end" font-size="12" fill="#cccccc">월</text><rect x="28" y="58" width="280" height="22" rx="3" fill="#216e39"><title>월: 2697.2점</title></rect><text x="313" y="74" font-size="10" fill="#cccccc">2697.2</text><text x="24" y="102" text-anchor="end" font-size="12" fill="#cccccc">화</text><rect x="28" y="86" width="153" height="22" rx="3" fill="#30a14e"><title>화: 1475.4점</title></rect><text x="186" y="102" font-size="10" fill="#cccccc">1475.4</text><text x="24" y="130" text-anchor="end" font-size="12" fill="#cccccc">수</text><rect x="28" y="114" width="182" height="22" rx="3" fill="#30a14e"><title>수: 1760.4점</title></rect><text x="215" y="130" font-size="10" fill="#cccccc">1760.4</text><text x="24" y="158" text-anchor="end" font-size="12" fill="#cccccc">목</text><rect x="28" y="142" width="152" height="22" rx="3" fill="#30a14e"><title>목: 1465.2점</title></rect><text x="185" y="158" font-size="10" fill="#cccccc">1465.2</text><text x="24" y="186" text-anchor="end" font-size="12" fill="#cccccc">금</text><rect x="28" y="170" width="99" height="22" rx="3" fill="#40c463"><title>금: 957.4점</title></rect><text x="132" y="186" font-size="10" fill="#cccccc">957.4</text><text x="24" y="214" text-anchor="end" font-size="12" fill="#cccccc">토</text><rect x="28" y="198" width="118" height="22" rx="3" fill="#40c463"><title>토: 1141.1점</title></rect><text x="151" y="214" font-size="10" fill="#cccccc">1141.1</text>
<text x="28" y="254" font-size="9" fill="#999999">기준: 2026-07-28 23:19</text>
</svg>