<svg xmlns="http://www.w3.org/2000/svg" width="363" height="260">
<text x="181" y="18" text-anchor="middle" font-size="13" font-weight="bold" fill="#e0e0e0">최근 2주 요일별 활동</text>
<text x="24" y="46" text-anchor="end" font-size="12" fill="#cccccc">일</text><rect x="28" y="30" width="38" height="22" rx="3" fill="#9be9a8"><title>일: 121.0점</title></rect><text x="71" y="46" font-size="10" fill="#cccccc">121.0</text><text x="24" y="74" text-anchor="end" font-size="12" fill="#cccccc">월</text><rect x="28" y="58" width="39" height="22" rx="3" fill="#9be9a8"><title>월: 122.2점</title></rect><text x="72" y="74" font-size="10" fill="#cccccc">122.2</text><text x="24" y="102" text-anchor="end" font-size="12" fill="#cccccc">화</text><rect x="28" y="86" width="24" height="22" rx="3" fill="#9be9a8"><title>화: 77.0점</title></rect><text x="57" y="102" font-size="10" fill="#cccccc">77.0</text><text x="24" y="130" text-anchor="end" font-size="12" fill="#cccccc">수</text><rect x="28" y="114" width="88" height="22" rx="3" fill="#40c463"><title>수: 277.6점</title></rect><text x="121" y="130" font-size="10" fill="#cccccc">277.6</text><text x="24" y="158" text-anchor="end" font-size="12" fill="#cccccc">목</text><rect x="28" y="142" width="131" height="22" rx="3" fill="#40c463"><title>목: 410.6점</title></rect><text x="164" y="158" font-size="10" fill="#cccccc">410.6</text><text x="24" y="186" text-anchor="end" font-size="12" fill="#cccccc">금</text><rect x="28" y="170" width="280" height="22" rx="3" fill="#216e39"><title>금: 875.8점</title></rect><text x="313" y="186" font-size="10" fill="#cccccc">875.8</text><text x="24" y="214" text-anchor="end" font-size="12" fill="#cccccc">토</text><rect x="28" y="198" width="133" height="22" rx="3" fill="#40c463"><title>토: 418.4점</title></rect><text x="166" y="214" font-size="10" fill="#cccccc">418.4</text>
<text x="28" y="254" font-size="9" fill="#999999">기준: 2026-06-09 23:27</text>
</svg>