<svg xmlns="http://www.w3.org/2000/svg" width="363" height="260">
<text x="181" y="18" text-anchor="middle" font-size="13" font-weight="bold" fill="#111111">최근 1달 요일별 활동</text>
<text x="24" y="46" text-anchor="end" font-size="12" fill="#333333">일</text><rect x="28" y="30" width="67" height="22" rx="3" fill="#9be9a8"><title>일: 570.1점</title></rect><text x="100" y="46" font-size="10" fill="#333333">570.1</text><text x="24" y="74" text-anchor="end" font-size="12" fill="#333333">월</text><rect x="28" y="58" width="280" height="22" rx="3" fill="#216e39"><title>월: 2364.6점</title></rect><text x="313" y="74" font-size="10" fill="#333333">2364.6</text><text x="24" y="102" text-anchor="end" font-size="12" fill="#333333">화</text><rect x="28" y="86" width="91" height="22" rx="3" fill="#40c463"><title>화: 770.0점</title></rect><text x="124" y="102" font-size="10" fill="#333333">770.0</text><text x="24" y="130" text-anchor="end" font-size="12" fill="#333333">수</text><rect x="28" y="114" width="90" height="22" rx="3" fill="#40c463"><title>수: 767.4점</title></rect><text x="123" y="130" font-size="10" fill="#333333">767.4</text><text x="24" y="158" text-anchor="end" font-size="12" fill="#333333">목</text><rect x="28" y="142" width="63" height="22" rx="3" fill="#9be9a8"><title>목: 540.0점</title></rect><text x="96" y="158" font-size="10" fill="#333333">540.0</text><text x="24" y="186" text-anchor="end" font-size="12" fill="#333333">금</text><rect x="28" y="170" width="89" height="22" rx="3" fill="#40c463"><title>금: 760.0점</title></rect><text x="122" y="186" font-size="10" fill="#333333">760.0</text><text x="24" y="214" text-anchor="end" font-size="12" fill="#333333">토</text><rect x="28" y="198" width="69" height="22" rx="3" fill="#9be9a8"><title>토: 584.0점</title></rect><text x="102" y="214" font-size="10" fill="#333333">584.0</text>
<text x="28" y="254" font-size="9" fill="#666666">기준: 2026-08-18 23:03</text>
</svg>