<svg xmlns="http://www.w3.org/2000/svg" width="363" height="260">
<text x="181" y="18" text-anchor="middle" font-size="13" font-weight="bold" fill="#111111">최근 1달 요일별 활동</text>
<text x="24" y="46" text-anchor="end" font-size="12" fill="#333333">일</text><rect x="28" y="30" width="212" height="22" rx="3" fill="#216e39"><title>일: 1703.4점</title></rect><text x="245" y="46" font-size="10" fill="#333333">1703.4</text><text x="24" y="74" text-anchor="end" font-size="12" fill="#333333">월</text><rect x="28" y="58" width="280" height="22" rx="3" fill="#216e39"><title>월: 2247.0점</title></rect><text x="313" y="74" font-size="10" fill="#333333">2247.0</text><text x="24" y="102" text-anchor="end" font-size="12" fill="#333333">화</text><rect x="28" y="86" width="180" height="22" rx="3" fill="#30a14e"><title>화: 1450.0점</title></rect><text x="213" y="102" font-size="10" fill="#333333">1450.0</text><text x="24" y="130" text-anchor="end" font-size="12" fill="#333333">수</text><rect x="28" y="114" width="108" height="22" rx="3" fill="#40c463"><title>수: 873.7점</title></rect><text x="141" y="130" font-size="10" fill="#333333">873.7</text><text x="24" y="158" text-anchor="end" font-size="12" fill="#333333">목</text><rect x="28" y="142" width="106" height="22" rx="3" fill="#40c463"><title>목: 855.4점</title></rect><text x="139" y="158" font-size="10" fill="#333333">855.4</text><text x="24" y="186" text-anchor="end" font-size="12" fill="#333333">금</text><rect x="28" y="170" width="98" height="22" rx="3" fill="#40c463"><title>금: 794.3점</title></rect><text x="131" y="186" font-size="10" fill="#333333">794.3</text><text x="24" y="214" text-anchor="end" font-size="12" fill="#333333">토</text><rect x="28" y="198" width="140" height="22" rx="3" fill="#30a14e"><title>토: 1130.7점</title></rect><text x="173" y="214" font-size="10" fill="#333333">1130.7</text>
<text x="28" y="254" font-size="9" fill="#666666">기준: 2026-10-04 23:03</text>
</svg>