<svg xmlns="http://www.w3.org/2000/svg" width="363" height="260">
<text x="181" y="18" text-anchor="middle" font-size="13" font-weight="bold" fill="#e0e0e0">최근 2주 요일별 활동</text>
<text x="24" y="46" text-anchor="end" font-size="12" fill="#cccccc">일</text><rect x="28" y="30" width="10" height="22" rx="3" fill="#9be9a8"><title>일: 22.0점</title></rect><text x="43" y="46" font-size="10" fill="#cccccc">22.0</text><text x="24" y="74" text-anchor="end" font-size="12" fill="#cccccc">월</text><rect x="28" y="58" width="280" height="22" rx="3" fill="#216e39"><title>월: 560.9점</title></rect><text x="313" y="74" font-size="10" fill="#cccccc">560.9</text><text x="24" y="102" text-anchor="end" font-size="12" fill="#cccccc">화</text><rect x="28" y="86" width="38" height="22" rx="3" fill="#9be9a8"><title>화: 77.0점</title></rect><text x="71" y="102" font-size="10" fill="#cccccc">77.0</text><text x="24" y="130" text-anchor="end" font-size="12" fill="#cccccc">수</text><rect x="28" y="114" width="112" height="22" rx="3" fill="#40c463"><title>수: 225.0점</title></rect><text x="145" y="130" font-size="10" fill="#cccccc">225.0</text><text x="24" y="158" text-anchor="end" font-size="12" fill="#cccccc">목</text><rect x="28" y="142" width="27" height="22" rx="3" fill="#9be9a8"><title>목: 55.0점</title></rect><text x="60" y="158" font-size="10" fill="#cccccc">55.0</text><text x="24" y="186" text-anchor="end" font-size="12" fill="#cccccc">금</text><rect x="28" y="170" width="82" height="22" rx="3" fill="#40c463"><title>금: 165.0점</title></rect><text x="115" y="186" font-size="10" fill="#cccccc">165.0</text><text x="24" y="214" text-anchor="end" font-size="12" fill="#cccccc">토</text><rect x="28" y="198" width="71" height="22" rx="3" fill="#40c463"><title>토: 143.0점</title></rect><text x="104" y="214" font-size="10" fill="#cccccc">143.0</text>
<text x="28" y="254" font-size="9" fill="#999999">기준: 2026-07-28 23:19</text>
</svg>