<svg xmlns="http://www.w3.org/2000/svg" width="363" height="260">
<text x="181" y="18" text-anchor="middle" font-size="13" font-weight="bold" fill="#e0e0e0">최근 1달 요일별 활동</text>
<text x="24" y="46" text-anchor="end" font-size="12" fill="#cccccc">일</text><rect x="28" y="30" width="65" height="22" rx="3" fill="#9be9a8"><title>일: 524.9점</title></rect><text x="98" y="46" font-size="10" fill="#cccccc">524.9</text><text x="24" y="74" text-anchor="end" font-size="12" fill="#cccccc">월</text><rect x="28" y="58" width="280" height="22" rx="3" fill="#216e39"><title>월: 2258.3점</title></rect><text x="313" y="74" font-size="10" fill="#cccccc">2258.3</text><text x="24" y="102" text-anchor="end" font-size="12" fill="#cccccc">화</text><rect x="28" y="86" width="90" height="22" rx="3" fill="#40c463"><title>화: 726.0점</title></rect><text x="123" y="102" font-size="10" fill="#cccccc">726.0</text><text x="24" y="130" text-anchor="end" font-size="12" fill="#cccccc">수</text><rect x="28" y="114" width="89" height="22" rx="3" fill="#40c463"><title>수: 722.0점</title></rect><text x="122" y="130" font-size="10" fill="#cccccc">722.0</text><text x="24" y="158" text-anchor="end" font-size="12" fill="#cccccc">목</text><rect x="28" y="142" width="62" height="22" rx="3" fill="#9be9a8"><title>목: 507.0점</title></rect><text x="95" y="158" font-size="10" fill="#cccccc">507.0</text><text x="24" y="186" text-anchor="end" font-size="12" fill="#cccccc">금</text><rect x="28" y="170" width="87" height="22" rx="3" fill="#40c463"><title>금: 705.0점</title></rect><text x="120" y="186" font-size="10" fill="#cccccc">705.0</text><text x="24" y="214" text-anchor="end" font-size="12" fill="#cccccc">토</text><rect x="28" y="198" width="66" height="22" rx="3" fill="#9be9a8"><title>토: 540.0점</title></rect><text x="99" y="214" font-size="10" fill="#cccccc">540.0</text>
<text x="28" y="254" font-size="9" fill="#999999">기준: 2026-08-17 23:03</text>
</svg>