<svg xmlns="http://www.w3.org/2000/svg" width="363" height="260">
<text x="181" y="18" text-anchor="middle" font-size="13" font-weight="bold" fill="#111111">최근 1주 요일별 활동</text>
<text x="24" y="46" text-anchor="end" font-size="12" fill="#333333">일</text><rect x="28" y="30" width="90" height="22" rx="3" fill="#40c463"><title>일: 44.0점</title></rect><text x="123" y="46" font-size="10" fill="#333333">44.0</text><text x="24" y="74" text-anchor="end" font-size="12" fill="#333333">월</text><rect x="28" y="58" width="118" height="22" rx="3" fill="#40c463"><title>월: 57.6점</title></rect><text x="151" y="74" font-size="10" fill="#333333">57.6</text><text x="24" y="102" text-anchor="end" font-size="12" fill="#333333">화</text><rect x="28" y="86" width="45" height="22" rx="3" fill="#9be9a8"><title>화: 22.0점</title></rect><text x="78" y="102" font-size="10" fill="#333333">22.0</text><text x="24" y="130" text-anchor="end" font-size="12" fill="#333333">수</text><rect x="28" y="114" width="27" height="22" rx="3" fill="#9be9a8"><title>수: 13.6점</title></rect><text x="60" y="130" font-size="10" fill="#333333">13.6</text><text x="24" y="158" text-anchor="end" font-size="12" fill="#333333">목</text><rect x="28" y="142" width="2" height="22" rx="3" fill="#ebedf0"><title>목: 0.0점</title></rect><text x="35" y="158" font-size="10" fill="#333333">0.0</text><text x="24" y="186" text-anchor="end" font-size="12" fill="#333333">금</text><rect x="28" y="170" width="2" height="22" rx="3" fill="#ebedf0"><title>금: 0.0점</title></rect><text x="35" y="186" font-size="10" fill="#333333">0.0</text><text x="24" y="214" text-anchor="end" font-size="12" fill="#333333">토</text><rect x="28" y="198" width="280" height="22" rx="3" fill="#216e39"><title>토: 135.8점</title></rect><text x="313" y="214" font-size="10" fill="#333333">135.8</text>
<text x="28" y="254" font-size="9" fill="#666666">기준: 2026-07-17 23:15</text>
</svg>