<svg xmlns="http://www.w3.org/2000/svg" width="363" height="260">
<text x="181" y="18" text-anchor="middle" font-size="13" font-weight="bold" fill="#e0e0e0">최근 2주 요일별 활동</text>
<text x="24" y="46" text-anchor="end" font-size="12" fill="#cccccc">일</text><rect x="28" y="30" width="197" height="22" rx="3" fill="#30a14e"><title>일: 147.7점</title></rect><text x="230" y="46" font-size="10" fill="#cccccc">147.7</text><text x="24" y="74" text-anchor="end" font-size="12" fill="#cccccc">월</text><rect x="28" y="58" width="162" height="22" rx="3" fill="#30a14e"><title>월: 121.0점</title></rect><text x="195" y="74" font-size="10" fill="#cccccc">121.0</text><text x="24" y="102" text-anchor="end" font-size="12" fill="#cccccc">화</text><rect x="28" y="86" width="132" height="22" rx="3" fill="#40c463"><title>화: 99.0점</title></rect><text x="165" y="102" font-size="10" fill="#cccccc">99.0</text><text x="24" y="130" text-anchor="end" font-size="12" fill="#cccccc">수</text><rect x="28" y="114" width="103" height="22" rx="3" fill="#40c463"><title>수: 77.0점</title></rect><text x="136" y="130" font-size="10" fill="#cccccc">77.0</text><text x="24" y="158" text-anchor="end" font-size="12" fill="#cccccc">목</text><rect x="28" y="142" width="280" height="22" rx="3" fill="#216e39"><title>목: 209.0점</title></rect><text x="313" y="158" font-size="10" fill="#cccccc">209.0</text><text x="24" y="186" text-anchor="end" font-size="12" fill="#cccccc">금</text><rect x="28" y="170" width="250" height="22" rx="3" fill="#216e39"><title>금: 187.0점</title></rect><text x="283" y="186" font-size="10" fill="#cccccc">187.0</text><text x="24" y="214" text-anchor="end" font-size="12" fill="#cccccc">토</text><rect x="28" y="198" width="221" height="22" rx="3" fill="#216e39"><title>토: 165.0점</title></rect><text x="254" y="214" font-size="10" fill="#cccccc">165.0</text>
<text x="28" y="254" font-size="9" fill="#999999">기준: 2026-08-05 23:20</text>
</svg>